<?xml version="1.0" standalone="no"?><!DOCTYPE svg PUBLIC "-//W3C//DTD SVG 1.1//EN" "http://www.w3.org/Graphics/SVG/1.1/DTD/svg11.dtd"><svg t="1647868473278" class="icon" viewBox="0 0 1024 1024" version="1.1" xmlns="http://www.w3.org/2000/svg" p-id="9969" xmlns:xlink="http://www.w3.org/1999/xlink" width="200" height="200"><defs><style type="text/css"></style></defs><path d="M511.227404 62.514799c-247.195985 0-448.294073 201.098087-448.294073 448.298166 0 247.206218 201.098087 448.304306 448.294073 448.304306 247.211335 0 448.308399-201.098087 448.308399-448.304306C959.535803 263.612886 758.437715 62.514799 511.227404 62.514799zM511.225357 919.461085c-225.323838 0-408.635841-183.346795-408.635841-408.648121 0-225.328955 183.312002-408.643004 408.635841-408.643004 225.305419 0 408.649144 183.315072 408.655284 408.643004C919.880641 736.114291 736.530776 919.461085 511.225357 919.461085zM511.148609 589.800947c21.816888 0 39.600927-17.697057 39.600927-39.600927l0.264013-241.1155c0-21.816888-17.703197-39.513946-39.602973-39.513946-21.902846 0-39.606043 17.697057-39.606043 39.513946l1.054005 241.1155C472.859561 572.10389 489.332744 589.800947 511.148609 589.800947zM511.323595 665.759943c-23.482831 0-42.49586 19.014052-42.49586 42.49279l-0.174985 1.314948c0 23.479761 19.014052 42.49279 42.49586 42.49279 23.479761 0 42.49279-19.014052 42.49279-42.49279l0.174985-1.314948C553.816384 684.773995 534.803355 665.759943 511.323595 665.759943z" p-id="9970"></path></svg>